HIERARCHY
ROOT Hips
{
  OFFSET 0.0 0.0 0.0
  CHANNELS 6 XPOSITION YPOSITION ZPOSITION ZROTATION XROTATION YROTATION 
  JOINT LeftUpLeg
  {
    OFFSET 0.089458 -0.0866707 0.00101652
    CHANNELS 3 ZROTATION XROTATION YROTATION 
    JOINT LeftLeg
    {
      OFFSET 0.0 -0.444227 0.013727
      CHANNELS 3 ZROTATION XROTATION YROTATION 
      JOINT LeftFoot
      {
        OFFSET -0.00253549 -0.420924 -0.0146059
        CHANNELS 3 ZROTATION XROTATION YROTATION 
        End Site
        {
          OFFSET -0.0004 -0.0441509 0.084991
        }
      }
    }
  }
  JOINT Spine
  {
    OFFSET 0.0 0.118905 0.0
    CHANNELS 3 ZROTATION XROTATION YROTATION 
    JOINT Spine1
    {
      OFFSET 0.0 0.256574 0.00127663
      CHANNELS 3 ZROTATION XROTATION YROTATION 
      End Site
      {
        OFFSET -0.0029 0.2150836 0.02525291
      }
      JOINT RightArm
      {
        OFFSET -0.162727 -0.05365632 0.00102123
        CHANNELS 3 ZROTATION XROTATION YROTATION 
        JOINT RightForeArm
        {
          OFFSET -0.26364 0.00099144 -0.0142434
          CHANNELS 3 ZROTATION XROTATION YROTATION 
          End Site
          {
            OFFSET -0.220324 0.00085362 0.0102216
          }
        }
      }
      JOINT LeftArm
      {
        OFFSET 0.162727 -0.0536563199 0.00102123
        CHANNELS 3 ZROTATION XROTATION YROTATION 
        JOINT LeftForeArm
        {
          OFFSET 0.262597 0.00099144 -0.0142434
          CHANNELS 3 ZROTATION XROTATION YROTATION 
          End Site
          {
            OFFSET 0.220902 0.00085362 0.0102216
          }
        }
      }
    }
  }
  JOINT RightUpLeg
  {
    OFFSET -0.089458 -0.0866707 0.00101652
    CHANNELS 3 ZROTATION XROTATION YROTATION 
    JOINT RightLeg
    {
      OFFSET 0.0 -0.444227 0.013727
      CHANNELS 3 ZROTATION XROTATION YROTATION 
      JOINT RightFoot
      {
        OFFSET 0.00253549 -0.420924 -0.0146059
        CHANNELS 3 ZROTATION XROTATION YROTATION 
        End Site
        {
          OFFSET 0.0004 -0.0441509 0.084991
        }
      }
    }
  }
}
MOTION
Frames: 8
Frame Time: 0.033333
0.48521280013 0.929647731962 0.0115839927246 -7.68227832086 3.94084113929 -89.5662991526 7.88122209459 -2.56824461614 5.43066291851 6.58204114039 60.0145704632 14.3888009395 -9.36654491358 -30.7272725475 -3.26183965418 8.9594314881 14.7744556182 -3.27420528479 2.78887722869 0.71532539161 -1.62601041518 75.2756651069 -28.2478028882 9.45728141538 13.1017030169 45.8736917301 -4.41416428415 -73.3863664806 -16.2094390892 -15.9126810302 -9.77336890979 50.9395132639 -8.20908398135 5.68173981863 -16.637794403 -7.26757826276 0.082389950606 26.6873334742 -17.3850324661 -1.75783157206 -32.1584020843 -2.23869588609 
0.453679908845 0.932601948939 0.00572342889925 -8.31273380956 4.4376439132 -88.9827004691 7.92001842285 -7.2745356642 5.30495029863 8.96823816326 67.0625333847 10.9196530912 -10.1782232502 -32.0299193958 -3.19540838054 11.0335482032 14.6289862492 -2.93063695114 1.10972570061 0.780843340893 -0.40175111333 77.3904555984 -27.1801982171 16.520267338 12.1443273537 44.1799414197 -2.0924553461 -72.1180003517 -16.4140339907 -10.037752726 -12.5552878833 54.1554327025 -4.58920068824 6.46995730922 -14.1153517548 -7.97022543589 -0.0422780038485 27.2697283368 -17.0060782031 -1.32618602807 -33.8699689431 -2.30049863935 
0.424355025379 0.936777929669 0.00166712692537 -8.85250487664 4.627663191 -88.8276415146 7.43613281733 -11.7620288593 5.0943956302 11.3190287661 71.757530288 7.27710637665 -10.7838655154 -34.1477185857 -3.00190570626 12.7724477715 14.3987781384 -2.38548198744 -0.802332503404 0.707889129873 0.90432707795 79.02503598 -26.0870708367 22.9725814148 10.9362000782 41.9212490876 0.801907377489 -70.3537283381 -14.0704091101 -4.21636627466 -14.2240755598 56.4426547348 -3.05422602252 6.84991518322 -11.3555984527 -8.47072206147 0.0864048145074 26.9881179297 -16.5722143417 -1.06890230027 -35.9481325452 -2.29554440433 
0.396462794307 0.941169579166 -0.00168429475405 -9.21828882745 4.61783198746 -88.6368675009 6.66350011087 -15.9721890533 4.55369394984 12.8526777348 74.0454046034 4.90016169879 -10.3101210333 -35.2054109447 -2.55835300812 14.1666302538 14.1918951235 -1.76928249092 -2.68523273657 0.423008849822 2.12892983693 79.6969148585 -24.3452513625 28.5915048374 9.65598784004 38.9310981369 4.16669158948 -68.9324274435 -10.5130032648 1.42608576226 -14.2348211549 56.7795982118 -3.56350520416 6.89700677623 -8.51174588518 -8.74205901022 0.637677079722 25.998189585 -16.6393670541 -1.00813826937 -37.8294398502 -2.26983407819 
0.369460897166 0.945779260294 -0.00459764377969 -9.49439580956 4.4510332184 -88.3207048744 5.57167046638 -19.6367904487 3.71196875728 12.7192849941 74.0644949821 4.78091385296 -9.01249608153 -35.6396812023 -1.93917928438 15.179361185 14.1343806618 -1.15967060514 -4.45139393777 -0.00586215534686 3.17846844418 78.5533909273 -21.1609249639 33.1726954213 8.26334300412 34.7148394378 8.08197074581 -68.0310132278 -7.76246132662 6.81776932478 -13.3212474949 55.3926907348 -4.83422902896 6.72224144528 -5.59525553647 -8.86554200022 1.39499879658 24.5304177909 -16.9163739136 -0.810241382216 -39.2667233875 -2.2402215796 
0.342675131919 0.949921301501 -0.00711544417511 -9.72156021739 4.10221289617 -88.123804181 4.26993544832 -22.578798811 2.71434364315 10.8930332827 72.0131432875 6.56793551909 -7.93500300411 -35.9735101131 -1.35286506714 15.7727167937 14.1939629633 -0.557085276467 -6.04297785166 -0.374336654993 4.05579279614 75.4778045554 -16.7216964468 36.8786092159 6.7858578272 29.5630907091 12.3149642622 -67.2763524566 -7.10556873697 11.8104318486 -12.524695466 53.5336498465 -5.58908189923 6.39876795505 -2.68911399157 -8.99829867957 1.99590699365 22.9539998852 -16.877861892 -0.454011532032 -40.6427162222 -2.19136032727 
0.315667731395 0.953308607525 -0.0093410662601 -9.79801479364 3.59665510041 -88.2467270955 2.99519910083 -24.8465684645 1.77215479891 8.3027446579 67.9744934125 8.99280720748 -7.58558674788 -35.777920816 -0.911102945772 15.9847702618 14.2343251124 0.0810581504292 -7.51538947868 -0.589061981005 4.8316519132 71.5038980434 -12.2566242014 40.0618052182 5.37158178219 24.584166257 16.4196671892 -66.289226197 -8.45529010282 16.1849323705 -12.197467933 52.166908503 -5.44480055632 5.97645479735 0.0697816882024 -9.15250642178 2.31903555932 21.3628253557 -16.4306672089 -0.193233962366 -41.9382460134 -2.12481528829 
0.288253550097 0.95601849799 -0.0114917396386 -9.64072065969 3.05449218645 -88.660015012 1.98063618477 -26.4828905444 1.08998869506 5.90321467888 62.0631217802 11.052351714 -7.85771770611 -35.1160310892 -0.623669055426 15.9414566171 14.2149111535 0.715489849759 -8.94076287355 -0.728844630494 5.5145542901 67.9970603575 -8.88147085514 42.8740126655 4.28373840685 20.6828612408 20.0323950054 -65.0378330882 -10.9661026464 19.806409659 -12.2818241844 51.4021527123 -4.51971589315 5.53664995207 2.59071892672 -9.31788664593 2.44851054622 19.7527055891 -15.6616254744 -0.0288794005126 -42.9980591461 -2.03846825024 
